/* XPM */
static char *dodo[] = {
/* columns rows colors chars-per-pixel */
"48 48 256 2",
"   c #4D505E",
".  c #4F5769",
"X  c #555967",
"o  c #555972",
"O  c #59596D",
"+  c #545F6B",
"@  c #575F71",
"#  c #5D5D71",
"$  c #566179",
"%  c #57627A",
"&  c #5E616F",
"*  c #5B6085",
"=  c #625C89",
"-  c #5C6376",
";  c #5E627B",
":  c #626276",
">  c #64617C",
",  c #666373",
"<  c #5C677F",
"1  c #636775",
"2  c #646484",
"3  c #626680",
"4  c #60687B",
"5  c #676770",
"6  c #66667B",
"7  c #62668C",
"8  c #6B6487",
"9  c #686592",
"0  c #6A6782",
"q  c #616C85",
"w  c #686889",
"e  c #646B8A",
"r  c #686C7A",
"t  c #6A6B7F",
"y  c #686C85",
"u  c #666E81",
"i  c #606F8C",
"p  c #627183",
"a  c #666E8D",
"s  c #696D93",
"d  c #706997",
"f  c #647094",
"g  c #686E99",
"h  c #6A7185",
"j  c #6F6F84",
"k  c #67728A",
"l  c #6C708A",
"z  c #6E7280",
"x  c #6F6F90",
"c  c #6A7291",
"v  c #6970A5",
"b  c #6D7197",
"n  c #736F97",
"m  c #6F738D",
"M  c #697599",
"N  c #70777F",
"B  c #687795",
"V  c #6E7595",
"C  c #70778A",
"Z  c #77738F",
"A  c #6D7890",
"S  c #75758B",
"D  c #6B7A8C",
"F  c #747495",
"G  c #727690",
"H  c #71759B",
"J  c #707B94",
"K  c #727A9A",
"L  c #79798E",
"P  c #767A94",
"I  c #747C8F",
"U  c #707CA1",
"Y  c #737F8B",
"T  c #7378B1",
"R  c #767AA0",
"E  c #7D7996",
"W  c #7A7A9B",
"Q  c #7C78A1",
"!  c #707F9D",
"~  c #7F789B",
"^  c #757D9D",
"/  c #797D97",
"(  c #7B7BA9",
")  c #7A8195",
"_  c #7980A0",
"`  c #777FAC",
"'  c #7E7EA0",
"]  c #7C809B",
"[  c #78839C",
"{  c #7682A7",
"}  c #7C80A7",
"|  c #7F829D",
" . c #7B83A3",
".. c #838398",
"X. c #7887A5",
"o. c #7C84B1",
"O. c #7B86AC",
"+. c #7E86A6",
"@. c #7D88A1",
"#. c #8286A1",
"$. c #8185AC",
"%. c #87879C",
"&. c #8686A8",
"*. c #8585B3",
"=. c #8588A3",
"-. c #8189A9",
";. c #8C84A8",
":. c #868A99",
">. c #828DA6",
",. c #8B87B1",
"<. c #888BA6",
"1. c #868AB1",
"2. c #848CAC",
"3. c #8D89A6",
"4. c #818DB2",
"5. c #7F8FAD",
"6. c #848FA2",
"7. c #8B8AAD",
"8. c #858ABE",
"9. c #8C8CA2",
"0. c #8791A5",
"q. c #7F92B7",
"w. c #8590B6",
"e. c #8392B1",
"r. c #8890B0",
"t. c #8C8FAB",
"y. c #8A8EB6",
"u. c #8792AC",
"i. c #8E92A1",
"p. c #8F8FB1",
"a. c #928EB8",
"s. c #8C93B4",
"d. c #8F93AE",
"f. c #8B92C0",
"g. c #9090BF",
"h. c #8F92BA",
"j. c #8F97AB",
"k. c #8998B7",
"l. c #9A92AA",
"z. c #8E96B6",
"x. c #9295B1",
"c. c #9D92A4",
"v. c #8D98B2",
"b. c #9893B1",
"n. c #9C95A1",
"m. c #9595B7",
"M. c #9797AD",
"N. c #9198B9",
"B. c #8D99BF",
"V. c #9498B4",
"C. c #9C94B9",
"Z. c #8F9AC0",
"A. c #8D9CBC",
"S. c #939ABB",
"D. c #979BB6",
"F. c #969AC2",
"G. c #969DB2",
"H. c #9F97BC",
"J. c #939EB8",
"K. c #9E99B7",
"L. c #969DBE",
"P. c #A29CA7",
"I. c #9A9DB9",
"U. c #949FC6",
"Y. c #95A3B3",
"T. c #9D9DC0",
"R. c #93A2C2",
"E. c #9F9FB5",
"W. c #97A2BC",
"Q. c #99A0C2",
"!. c #9CA0BC",
"~. c #92A5BD",
"^. c #A29EBC",
"/. c #9C9FC7",
"(. c #9EA2CA",
"). c #9AA5CC",
"_. c #A1A4C0",
"`. c #9DA5C6",
"'. c #9BA7C1",
"]. c #A5A5BC",
"[. c #A1A8BD",
"{. c #A5A4C8",
"}. c #A7A3CE",
"|. c #9BAACA",
" X c #A9A5C3",
".X c #9FAAC4",
"XX c #9DACBF",
"oX c #A1A8CA",
"OX c #A4A8C4",
"+X c #ADA5BE",
"@X c #A6AAB9",
"#X c #9DACCC",
"$X c #ADAABB",
"%X c #A5ADC1",
"&X c #A7ABC7",
"*X c #A2AEC8",
"=X c #A5ACCE",
"-X c #ADADC3",
";X c #AAAECA",
":X c #A6B1CC",
">X c #AAB1D3",
",X c #ADB1CD",
"<X c #ADB4C9",
"1X c #B8B0C9",
"2X c #B5B1CF",
"3X c #B3B3CA",
"4X c #ABB6D1",
"5X c #B1B4D0",
"6X c #AEB9D4",
"7X c #B2B9CE",
"8X c #B4B7D4",
"9X c #B7B7CE",
"0X c #B5BCD1",
"qX c #AFBFD2",
"wX c #B3BED9",
"eX c #BCBCD3",
"rX c #B9BDD9",
"tX c #B9C1D6",
"yX c #B5C5D2",
"uX c #BCC3D9",
"iX c #BFC3D2",
"pX c #BEC2DE",
"aX c #C3C2DA",
"sX c #C6C3D4",
"dX c #C3C7D6",
"fX c #C2C6E3",
"gX c #C1C9DE",
"hX c #C7C6DE",
"jX c #C8CCDC",
"kX c #CDCCD3",
"lX c #CCCCE3",
"zX c #CFCCDD",
"xX c #CCD0E0",
"cX c #D8D1DD",
"vX c #D1D5E5",
"bX c #D6D6E1",
"nX c #DCD9DE",
"mX c #D6DAEA",
"MX c #E0D9E5",
"NX c #DBDCE6",
"BX c #DFDBED",
"VX c #DBDFEF",
"CX c #E0E1EB",
"ZX c #DFE7F0",
"AX c #E7E7F2",
"SX c #E8E8EC",
"DX c #EAEBF6",
"FX c #EFEDF1",
"GX c #F3F0F5",
"HX c #EEF3F6",
"JX c #F3F5F2",
"KX c #F3F9FB",
"LX c #F7F9F6",
"PX c #FAF7FC",
"IX c #FEF8F7",
"UX c #FEFFFC",
/* pixels */
"UXUXUXUXUXUXUXUXUXUXUXUXUXUXUXUXUXUXUXUXUXUXUXUXUXUXUXUXUXUXUXUXUXUXUXUXUXUXUXUXUXUXUXUXUXUXUXUX",
"UXUXUXUXUXUXUXUXUXUXUXUXUXUXUXUXUXUXUXUXUXUXUXUXUXUXUXUXUXUXUXUXUXUXUXUXUXUXUXUXUXUXUXUXUXUXUXUX",
"UXUXUXUXUXUXUXUXUXUXUXUXUXUXUXUXUXUXUXKXGXUXUXUXUXUXUXUXUXUXUXUXUXUXUXUXUXUXUXUXUXUXUXUXUXUXUXUX",
"UXUXUXUXUXUXUXUXUXUXUXUXUXUXUXNXOX' +.K u M !.S.[.mXUXUXUXUXUXUXUXUXUXUXUXUXUXUXUXUXUXUXUXUXUXUX",
"UXUXUXUXUXUXUXUXUXUXUXUXUXCX&X[.u.&.d.r.s.=.-X3XD.y x.AXUXUXUXUXUXUXUXUXUXUXUXUXUXUXUXUXUXUXUXUX",
"UXUXUXUXUXUXUXUXUXUXUXHX<Xt.t.-.c @.m.Z Z y W <.b.] '.| ;XAXUXUXUXUXUXUXUXUXUXUXUXUXUXUXUXUXUXUX",
"UXUXUXUXUXUXUXUXUXUXsX7.t.J.| 0 R l V  ._ 0.X.=.v.t._ G - -.UXUXUXUXUXUXUXUXUXUXUXUXUXUXUXUXUXUX",
"UXUXUXUXUXUXUXUXUX3X>.@.-. .<.z.W H / F k x 3.W ~ 0 0.M.iXaXPXUXUXUXUXUXUXUXUXUXUXUXUXUXUXUXUXUX",
"UXUXUXUXUXUXUXUXbXL. .E W <.<.2.C U V 7.J [ ^ & M.zXI.z.-Xj.CXUXUXUXUXUXUXUXUXUXUXUXUXUXUXUXUXUX",
"UXUXUXUXUXUXUXPX| 2.6 - b V ^ >.E t.>._ =.W : OX_.4._.t.wXs.{ PXUXUXUXUXUXUXUXUXUXUXUXUXUXUXUXUX",
"UXUXUXUXUXUXUX].m t.h 3 ^ / =.<.P 2.7.M -X4 tXiXd.d.aXsX-XzXG.>.KXUXUXUXUXUXUXUXUXUXUXUXUXUXUXUX",
"UXUXUXUXUXUXHXy 4 u y y / V G ' F Q.K =.P aX9X#.!.d.m.hX-XCXSX3Xd.NXUXUXUXUXUXUXUXUXUXUXUXUXUXUX",
"UXUXUXUXUXIX<XC r - W j j U c J i z.C n 3X_.<._ rX&  XW C Q.GXNXAX'.0XUXUXUXUXUXUXUXUXUXUXUXUXUX",
"UXUXUXUXUXUX..P J L ; G  .2.J.G 1 =.L ' .X:X<.4 5XdXE.&.!.4.4XhXCXSXgXQ.vXDXUXUXUXUXUXUXUXUXUXUX",
"UXUXUXUXUXaXr @ l & g S ' 1 G x { 0 4 z.#XgX_.A.6XtX_.p.9X7Xv.uXgXaXFXiXr.S.[.ZXUXUXUXUXUXUXUXUX",
"UXUXUXUXUX9Xa 1 $ y M h I x _ >.n s ;  XS.oX! OX9X0X,XrXpX-XJ.oX_.bXCX&XC.S.<.l 4 a '.KXUXUXUXUX",
"UXUXUXUXUXp.V e z ; g & 4 h f G ; m y 4XJ.^.-X^.<.t.N.<.&XgXiX9XW.e.AXDXE.2.3X3.I.D.0._ UXUXUXUX",
"UXUXUXUXIXW j t 3 v A G S <.e 4 j K # OXy.P -.k s.r.u._.r.-.>XFXrX;XhXUX1Xt._ tXjXrX7X6X&XUXUXUX",
"UXUXUXKXIX6 h P 2 V / , V :.#.0 z c 3 _ 7.d.R v.4.S..X9X9XW.r.J.FXmXgXbXk _.3Xr.jXCXNXVX!.HXUXUX",
"UXUXUXUXKX~ G x # F K f > w G V @ 4   3 .X_ { +.^ k Z.k.z.-X-XI.7.eXFXJX   XI.x._ fXGXCXeX>XUXUX",
"UXUXUXIXJX..O h h z - G _ 7.J J E a ] . m m.~.2..X| r.u.V A.R.gX-XJ.L.BX;XF.%.&X<.2.NXjX;Xr.UXUX",
"UXUXUXUXUX.X! f j - y H _ K K a G : : x 3 `.I.r.+.B <.O.O.@.2.aXVXeXt.A.V.2X8XzXx.} fXzXaX%.UXUX",
"UXUXUXKXIXkX1 $ < _ y y u h @ k b 4 G t - - &Xt.N.V l 4 e d.A.OX5XSX_.r.J.' @ _.3XP |.nX6Xk UXUX",
"UXUXUXIXUXnXE E %.e } x t.F  .| F c o y a V V -.OXHXIXJXiX@.@ X.wXmXMXm.p.~.].V 3XW T.gXh.! UXUX",
"UXUXUXUXIXIXn.y t $.W y j c r.t 6 A V @ [ : C ^ 3 +.CXIXPXIXMXC k :XSXK.f.e.>.v.R N.;XvX| oXPXUX",
"UXUXUXUXKXUXdX) =.C k i k P @.4.- K X d.H h.E u 6 / q |.FXUXKXUX!.^ #X%X<.r.u.x.: 1X1X5XL vXUXUX",
"UXUXUXUXUXPXPX .t 6 V e 4 # t y t e o.T.+.z.7._ N.F l I ; *XUXKXUXNXJ.R.{ =.>.+.[.%XaXI.K UXUXUX",
"UXUXUXUXUXUXUX@XB <.G y r.| R V { #.<.9.| T.<.| P <.s.@.X.- q pXKXIXKXbX9X9XgXIXUXb.bXC 5XUXUXUX",
"UXUXUXUXUXUXIXPX_.X.G l l | ' ' w V n W 7 L.r._.HXp.&X' r.r.-. .tXPXKXIXKXIXUXPXFXS.5.-.UXUXUXUX",
"UXUXUXUXUXKXUXUXUX3.O.&.G G e 2.x  .@.2.z.<.U sXrXD.| vXt.S.7XfXhXS.KXUXUXUXUXUXkX| 7.UXUXUXUXUX",
"vXCXPXGXIXKXUXKXUXSXK _ 6 1 _ z ; &.N.7./ 5XgXhX_.2XV.].R.} d.J.[./ oXUXUXUXUXIXmXvXPXUXUXUXUXUX",
"+.a >.4XgXhXhXvXDXPXSX3X>.<.9.e t. .t.{ T.uXQ..X<.$.;XN.7.>.8X+X>X&Xj.8XUXUXUXUXUXUXUXUXUXUXUXUX",
"s.z.d.{ d.A - [ _ K s.{.$.V K ] ' +.' 5XrXz.*XO.CXgX8X0XN.aXwX8XuXm.X.| uXUXUXUXUXUXUXUXUXUXPXUX",
"d.} rX/ w.+.X m k _ k _ K =.[ M p.w o.T.d.R G 9X8X{._.d.OX&X-Xp. Xm.T.7XJ.HXUXUXUXUXUXUXUXUXUXUX",
"v.k.:X[ x._.+.t.& 3 w.9.-.b.G 3 W 8 M h.z.4XaXgX6.oXD.E &.[.:X1.9.;.K.p.9X:XUXUXUXUXUXUXUXUXUXUX",
"5Xt.H OX.Xz.T.S.=.O { u.S.B -.. 9 v B ] r.R.}.2XvXz.4.;X<Xj.Q _ gXlX`.d.I.X.UXUXUXUXUXUXUXUXUXUX",
"I.pX^.t.' m.z.[ 0.G k V 1.G.+.A A - 1.].^.q.G.;.F.%XZXeXN.`.eX;Xm.7X' #.-X@.VXUXUXUXUXUXUXUXUXUX",
"< Z.:X;XwXoX] x.R.u.# 6 c &.P b w.w.` j.b.+.1.*X2Xy.3.4.3.].+.L.D.I.iX^ Q.L OXUXUXUXUXUXUXUXUXUX",
"2.lX&XG +.m.w..XD.| a @ : V <.W M.&Xz.s G.).$.XX{.eX' k.v.zX-XQ.`.aXkX^.0 >.dXUXUXUXUXUXUXUXUXUX",
"_ 4Xd.>XQ.W.-X_.5X'.7.6 p c S ` j ( V.[.U ' I.].+X.X).yXiX/.~.R.0Xx.F.OXoXp.+.UXUXUXUXUXUXUXUXUX",
"zXQ.*XrX5XgX2.x.G J U sXN < m c %.* <.G.qXg.{.' @.( -.Y.w.;.q.W.{.J.t.l 5.d.| DXUXUXUXUXUXUXKXUX",
"-.L.7.4.N.w. X,XpXd.y  X3., A c n.y I y / { ,.[.L.x._.iX' n N.K.W ( H | d G s VXUXUXUXUXUXUXIXUX",
"rXaXmXI.eX6X>.N.8XB v._ % 6 w V _ /.(.m.x.@ p.T.F.T.uX&XwXgX#Xs.r.m.j.%X; o w UXUXUXUXUXUXUXUXUX",
"^.vX| _ U.5Xt.N.u.1.-XK L.; q V +.V r.0.a.oX7.Z.x.W @Xx.8.K.4.g h.{.h.W f._.v.UXUXUXUXUXUXUXUXUX",
"_.z.gX3XrX .h.&X<XQ.<XA a.q l j 2.V G @ 9 K K ,./.5XI.%X| ..n [.>.,.O.$.$.S.D.UXUXUXUXUXUXUXKXUX",
"! mXaX2XJ._.2.=.I 2 &Xa.;.w g / e W Q.-., @ G ; Z.#XW.*.J.*.2X].$.X.&.Q.+.E.o.UXUXUXUXUXUXUXIXUX",
"aXM..X7.5X9XI.h P.T r._.j.S < G r b K.L.d.J.G.].m Y.F p.gXE.b.@Xl.^.l.H a ) hXUXUXUXUXUXUXUXUXUX",
"|.L.zXL.R.x.v.x.}._./ 4 7.& S V V . u.p.} t.y.J.].' I.^.@Xj.T./ x 5.2.N.O.p.KXUXUXUXUXUXUXUXPXUX"
};
